<svg width="24" height="25" viewBox="0 0 24 25" fill="none" xmlns="http://www.w3.org/2000/svg">
<path d="M13.1575 3.66975V3.07339C13.1575 2.78908 13.1575 2.20659 13.1575 1.77665C13.1575 1.34672 12.679 1 12.0826 1C11.4863 1 11.0078 1.34672 11.0078 1.76972C11.0078 2.19272 11.0078 2.77521 11.0078 3.06645V3.66975M18.7466 9.60561C18.7466 6.28402 15.7579 3.59347 12.0826 3.59347C8.40741 3.59347 5.43255 6.33256 5.44641 9.70962C5.46028 13.0867 5.47415 15.8535 5.47415 15.8812C5.47415 15.909 4.69056 17.1988 3.73365 18.766C2.7767 20.3262 1.99311 21.5952 2.00005 21.5952C2.00698 21.5952 5.11356 21.5952 8.94136 21.5952H15.0644C18.8922 21.5952 21.9989 21.5952 21.9919 21.5883C21.9919 21.5883 21.2638 20.2638 20.3623 18.6411C19.4678 17.0185 18.7397 15.6801 18.7397 15.6593C18.7466 15.6385 18.7466 12.9272 18.7466 9.60561Z" stroke="black" stroke-miterlimit="16" stroke-linecap="round" stroke-linejoin="round"/>
<mask id="path-2-inside-1_754_126772" fill="white">
<path d="M14.5617 21.5952C14.631 21.831 14.6657 22.0737 14.6657 22.3303C14.6657 23.8073 13.466 25 11.9959 25C10.5258 25 9.32617 23.8004 9.32617 22.3303C9.32617 22.0737 9.36084 21.831 9.43019 21.5952"/>
</mask>
<path d="M15.521 21.313C15.3652 20.7832 14.8093 20.48 14.2795 20.6358C13.7496 20.7917 13.4465 21.3475 13.6023 21.8774L15.521 21.313ZM10.3896 21.8774C10.5454 21.3475 10.2422 20.7917 9.71235 20.6358C9.18251 20.48 8.62666 20.7832 8.47082 21.313L10.3896 21.8774ZM13.6023 21.8774C13.6439 22.0188 13.6657 22.1663 13.6657 22.3303H15.6657C15.6657 21.9811 15.6181 21.6432 15.521 21.313L13.6023 21.8774ZM13.6657 22.3303C13.6657 23.2533 12.9154 24 11.9959 24V26C14.0166 26 15.6657 24.3613 15.6657 22.3303H13.6657ZM11.9959 24C11.0781 24 10.3262 23.2481 10.3262 22.3303H8.32617C8.32617 24.3526 9.97354 26 11.9959 26V24ZM10.3262 22.3303C10.3262 22.1663 10.348 22.0188 10.3896 21.8774L8.47082 21.313C8.37373 21.6432 8.32617 21.9811 8.32617 22.3303H10.3262Z" fill="black" mask="url(#path-2-inside-1_754_126772)"/>
<circle cx="18" cy="5" r="4" fill="#FF0000"/>
</svg>
