<svg width="28" height="28" viewBox="0 0 28 28" fill="none" xmlns="http://www.w3.org/2000/svg">
<path d="M14.65 2C14.65 1.64101 14.359 1.35 14 1.35C13.641 1.35 13.35 1.64101 13.35 2V13.35H2C1.64101 13.35 1.35 13.641 1.35 14C1.35 14.359 1.64101 14.65 2 14.65H13.35L13.35 26C13.35 26.359 13.641 26.65 14 26.65C14.359 26.65 14.65 26.359 14.65 26L14.65 14.65H26C26.359 14.65 26.65 14.359 26.65 14C26.65 13.641 26.359 13.35 26 13.35H14.65V2Z" stroke="#FFB433" stroke-width="1.3" stroke-linecap="round" stroke-linejoin="round"/>
<path d="M14 2L14 26M2 14L26 14" stroke="#121330" stroke-width="1.3" stroke-linecap="round" stroke-linejoin="round"/>
</svg>
