<svg width="24" height="25" viewBox="0 0 24 25" fill="none" xmlns="http://www.w3.org/2000/svg">
<path d="M13.1616 3.66975V3.07339C13.1616 2.78908 13.1616 2.20659 13.1616 1.77665C13.1616 1.34672 12.6832 1 12.0868 1C11.4904 1 11.012 1.34672 11.012 1.76972C11.012 2.19272 11.012 2.77521 11.012 3.06645V3.66975M18.7508 9.60561C18.7508 6.28402 15.762 3.59347 12.0868 3.59347C8.41156 3.59347 5.4367 6.33256 5.45056 9.70962C5.46443 13.0867 5.4783 15.8535 5.4783 15.8812C5.4783 15.909 4.69471 17.1988 3.7378 18.766C2.78085 20.3262 1.99726 21.5952 2.0042 21.5952C2.01113 21.5952 5.11771 21.5952 8.94551 21.5952H15.0686C18.8964 21.5952 22.003 21.5952 21.9961 21.5883C21.9961 21.5883 21.268 20.2638 20.3665 18.6411C19.4719 17.0185 18.7438 15.6801 18.7438 15.6593C18.7508 15.6385 18.7508 12.9272 18.7508 9.60561Z" stroke="black" stroke-miterlimit="16" stroke-linecap="round" stroke-linejoin="round"/>
<mask id="path-2-inside-1_754_126774" fill="white">
<path d="M14.5658 21.5952C14.6351 21.831 14.6698 22.0737 14.6698 22.3303C14.6698 23.8073 13.4702 25 12.0001 25C10.53 25 9.33032 23.8004 9.33032 22.3303C9.33032 22.0737 9.36499 21.831 9.43434 21.5952"/>
</mask>
<path d="M15.5252 21.313C15.3693 20.7832 14.8135 20.48 14.2836 20.6358C13.7538 20.7917 13.4506 21.3475 13.6064 21.8774L15.5252 21.313ZM10.3937 21.8774C10.5495 21.3475 10.2463 20.7917 9.7165 20.6358C9.18666 20.48 8.63081 20.7832 8.47497 21.313L10.3937 21.8774ZM13.6064 21.8774C13.648 22.0188 13.6698 22.1663 13.6698 22.3303H15.6698C15.6698 21.9811 15.6223 21.6432 15.5252 21.313L13.6064 21.8774ZM13.6698 22.3303C13.6698 23.2533 12.9196 24 12.0001 24V26C14.0208 26 15.6698 24.3613 15.6698 22.3303H13.6698ZM12.0001 24C11.0823 24 10.3303 23.2481 10.3303 22.3303H8.33032C8.33032 24.3526 9.97769 26 12.0001 26V24ZM10.3303 22.3303C10.3303 22.1663 10.3521 22.0188 10.3937 21.8774L8.47497 21.313C8.37788 21.6432 8.33032 21.9811 8.33032 22.3303H10.3303Z" fill="black" mask="url(#path-2-inside-1_754_126774)"/>
</svg>
