<svg width="38" height="37" viewBox="0 0 38 37" fill="none" xmlns="http://www.w3.org/2000/svg">
<path d="M1 5.63867L19 1.63867L35.5 6.13867L36 15.6387L33 24.6387L18.5 24.1387H4L1 14.6387V5.63867Z" fill="#FFB433"/>
<mask id="mask0_1186_59708" style="mask-type:alpha" maskUnits="userSpaceOnUse" x="0" y="-1" width="38" height="37">
<path d="M19 34.6524C38.9391 25.9438 36.9446 12.7255 36.9446 4.74758C31.1935 3.99611 19 0 19 0C19 0 6.80653 3.99611 1.05543 4.74657C1.05543 12.7255 -0.939126 25.9438 19 34.6524Z" fill="#D9D9D9" stroke="#121331" stroke-width="1.16667" stroke-linecap="round" stroke-linejoin="round"/>
</mask>
<g mask="url(#mask0_1186_59708)">
<path d="M7.183 23.7997C2.66372 23.7997 -1 27.427 -1 31.9014V33.4013H21.6285V31.9014C21.6285 27.427 17.9648 23.7997 13.4455 23.7997H7.183ZM15.4403 15.6154C15.4403 18.5193 13.0625 20.8735 10.1295 20.8735C7.19651 20.8735 4.81875 18.5193 4.81875 15.6154C4.81875 12.7116 7.19651 10.3574 10.1295 10.3574C13.0625 10.3574 15.4403 12.7116 15.4403 15.6154Z" fill="#E6E6E6" stroke="black" stroke-width="1.16375" stroke-linejoin="round"/>
<path d="M23.0189 23.7421C18.4997 23.7421 14.8359 27.3694 14.8359 31.8438V33.3437H37.4644V31.8438C37.4644 27.3694 33.8007 23.7421 29.2814 23.7421H23.0189ZM31.6457 15.5578C31.6457 18.4617 29.2679 20.8158 26.3349 20.8158C23.4019 20.8158 21.0241 18.4617 21.0241 15.5578C21.0241 12.654 23.4019 10.2998 26.3349 10.2998C29.2679 10.2998 31.6457 12.654 31.6457 15.5578Z" fill="#E6E6E6" stroke="black" stroke-width="1.16375" stroke-linejoin="round"/>
<path d="M11.5755 24.0166H18.0894L24.6519 24.4016L27.1311 25.5567L29.4158 27.3856L30.9714 32.5353L30.6797 35.808H4.42969L4.9158 31.3321L6.71441 27.1449L11.5755 24.0166Z" fill="#F2F2F2"/>
<ellipse cx="18.0885" cy="13.7651" rx="6.85417" ry="6.4492" fill="#F2F2F2"/>
<path d="M14.0692 24.1608C8.90504 24.1608 4.71875 28.3056 4.71875 33.4184V36.1929H31.4549V33.4184C31.4549 28.3056 27.2686 24.1608 22.1044 24.1608H14.0692ZM25.1354 14.0539C25.1354 17.7752 22.0885 20.7919 18.3299 20.7919C14.5713 20.7919 11.5243 17.7752 11.5243 14.0539C11.5243 10.3326 14.5713 7.31592 18.3299 7.31592C22.0885 7.31592 25.1354 10.3326 25.1354 14.0539Z" fill="#F2F2F2" stroke="black" stroke-width="1.16667" stroke-linejoin="round"/>
</g>
<path d="M18.5 35.6426C37.8852 26.934 35.9461 13.7158 35.9461 5.73782C30.3548 4.98634 18.5 0.990234 18.5 0.990234C18.5 0.990234 6.64523 4.98634 1.05389 5.73681C1.05389 13.7158 -0.885262 26.934 18.5 35.6426Z" stroke="#121331" stroke-width="1.16667" stroke-linecap="round" stroke-linejoin="round"/>
</svg>
