<svg width="85" height="38" viewBox="0 0 85 38" fill="none" xmlns="http://www.w3.org/2000/svg">
<path d="M31 7.57324L33 5.07324L37 3.07324L42 2.57324L47.5 3.57324L52 7.57324H53L52 9.07324L50.5 11.5732L49 15.0732V22.0732L50.5 27.0732L54 31.5732L49.5 35.0732L43.5 36.5732L39 36.0732L35 34.5732L31.5 32.0732L34 27.0732L36 18.5732L34 12.0732L31 7.57324Z" fill="#FFB433"/>
<mask id="path-2-inside-1_1186_59695" fill="white">
<path d="M48.5442 18.0914C48.619 14.6249 50.0543 11.1577 52.6388 8.20028L53.0892 8.44531C50.5788 11.3179 49.1846 14.6858 49.112 18.0529L48.5442 18.0914Z"/>
</mask>
<path d="M48.5442 18.0914C48.619 14.6249 50.0543 11.1577 52.6388 8.20028L53.0892 8.44531C50.5788 11.3179 49.1846 14.6858 49.112 18.0529L48.5442 18.0914Z" stroke="#FFB433" stroke-width="2" mask="url(#path-2-inside-1_1186_59695)"/>
<mask id="path-3-inside-2_1186_59695" fill="white">
<path d="M46.678 3.96326C48.8927 4.41976 51.0015 5.28841 52.8942 6.52382L51.7974 8.19802C50.1153 7.10005 48.241 6.32803 46.2727 5.92231L46.678 3.96326Z"/>
</mask>
<path d="M46.678 3.96326C48.8927 4.41976 51.0015 5.28841 52.8942 6.52382L51.7974 8.19802C50.1153 7.10005 48.241 6.32803 46.2727 5.92231L46.678 3.96326Z" stroke="#FFB433" stroke-width="2" mask="url(#path-3-inside-2_1186_59695)"/>
<path d="M57.9629 12.767C59.584 16.4041 59.882 20.4936 58.8053 24.3273C57.7285 28.161 55.3449 31.4974 52.0672 33.7587C48.7895 36.0199 44.8242 37.0636 40.858 36.709C36.8918 36.3544 33.1745 34.6239 30.3499 31.817C27.5253 29.0102 25.7714 25.3039 25.3918 21.34C25.0122 17.3761 26.0309 13.4043 28.2714 10.1124C30.512 6.82053 33.8333 4.41593 37.6601 3.31505C41.4869 2.21417 45.5783 2.48635 49.2255 4.08446" stroke="black" stroke-width="1.3" stroke-linecap="round"/>
<path d="M30.8205 7.64261C32.4185 9.22823 33.6859 11.1104 34.5504 13.1814C35.415 15.2525 35.8599 17.472 35.8599 19.7134C35.8599 21.9548 35.415 24.1744 34.5504 26.2454C33.6859 28.3165 32.4185 30.1986 30.8205 31.7842" stroke="black" stroke-width="1.28049"/>
<path d="M54.177 31.7894C52.1317 29.7617 50.6347 27.2558 49.8236 24.5032C49.0126 21.7507 48.9136 18.8399 49.5357 16.0394" stroke="black" stroke-width="1.28049" stroke-linecap="round"/>
<path d="M53.9893 1.27539V13.5468M47.8536 7.41108L60.125 7.41108" stroke="#121330" stroke-width="2.23905" stroke-linecap="round" stroke-linejoin="round"/>
</svg>
