<svg width="26" height="16" viewBox="0 0 26 16" fill="none" xmlns="http://www.w3.org/2000/svg">
<path d="M1 1L11.0176 9.87287C12.103 10.8359 13.8744 10.8359 14.9598 9.87287L25 1" fill="#FFB433"/>
<path d="M1 1L11.0176 9.87287C12.103 10.8359 13.8744 10.8359 14.9598 9.87287L25 1" stroke="#121331" stroke-width="1.00502" stroke-miterlimit="14.8" stroke-linecap="round" stroke-linejoin="round"/>
<path d="M1 0.625C0.792893 0.625 0.625 0.792893 0.625 1V15C0.625 15.2071 0.792893 15.375 1 15.375H24.9925C25.1996 15.375 25.3675 15.2071 25.3675 15V1C25.3675 0.792893 25.1996 0.625 24.9925 0.625H1Z" stroke="#121331" stroke-width="0.75" stroke-miterlimit="14.8" stroke-linecap="round" stroke-linejoin="round"/>
<path d="M1 13.6052L7.33167 8.77031C7.77639 8.43161 8.26634 8.13938 8.7789 7.89365M17.2211 7.88037C17.7487 8.1261 18.2538 8.4316 18.706 8.7836L25 13.5455" stroke="#121331" stroke-width="1.00502" stroke-miterlimit="14.8" stroke-linecap="round" stroke-linejoin="round"/>
</svg>
