<svg width="254" height="242" viewBox="0 0 254 242" fill="none" xmlns="http://www.w3.org/2000/svg">
<path d="M130.167 4.30137L157.393 88.0938C157.839 89.4646 159.117 90.3945 160.559 90.3945H248.664C251.889 90.3945 253.231 94.523 250.622 96.4199L215.447 121.977L179.342 148.207C178.773 148.619 178.349 149.202 178.131 149.871C177.914 150.54 177.915 151.261 178.134 151.929L188.42 183.584L205.359 235.721C206.356 238.79 202.844 241.34 200.235 239.443L166.928 215.246L128.958 187.656C128.389 187.243 127.703 187.021 127 187.021C126.297 187.021 125.611 187.243 125.042 187.656L91.1159 212.308L53.7653 239.443C51.1565 241.34 47.6443 238.79 48.6406 235.721L64.1318 188.047L75.8664 151.929C76.0851 151.261 76.0858 150.54 75.8685 149.871C75.6513 149.202 75.2273 148.619 74.6576 148.207L37.7428 121.388L3.37831 96.4199C0.769426 94.523 2.11107 90.3945 5.33631 90.3945H93.4405C94.8831 90.3945 96.161 89.4646 96.6073 88.0938L123.833 4.30137C124.829 1.23288 129.171 1.23288 130.167 4.30137Z" fill="#FFD34D" stroke="black" stroke-width="3" stroke-linecap="round" stroke-linejoin="round"/>
<path d="M101.019 103.178C103.825 103.178 106.245 103.422 108.278 103.91C110.311 104.398 111.877 105.333 112.975 106.716C114.114 108.058 114.683 110.051 114.683 112.694C114.683 114.361 114.48 115.907 114.073 117.33C113.666 118.753 112.934 120.258 111.877 121.844C110.82 123.389 109.356 125.158 107.485 127.151L96.017 139.473C97.0337 139.31 98.091 139.209 99.189 139.168C100.328 139.127 101.426 139.107 102.483 139.107H116.025V146H86.989V141.73C86.989 141.079 87.0703 140.51 87.233 140.022C87.3957 139.493 87.6803 139.005 88.087 138.558L99.25 126.236C101.812 123.511 103.744 121.112 105.045 119.038C106.346 116.923 106.977 115.032 106.936 113.365C106.895 112.267 106.611 111.474 106.082 110.986C105.553 110.457 104.801 110.112 103.825 109.949C102.849 109.786 101.649 109.705 100.226 109.705C98.884 109.705 97.603 109.725 96.383 109.766C95.163 109.807 93.8617 109.888 92.479 110.01C91.137 110.091 89.551 110.234 87.721 110.437L87.355 104.703C89.307 104.256 91.0557 103.93 92.601 103.727C94.1463 103.524 95.59 103.381 96.932 103.3C98.274 103.219 99.6363 103.178 101.019 103.178ZM127.203 137.643C128.219 137.643 128.911 137.846 129.277 138.253C129.683 138.619 129.887 139.29 129.887 140.266V143.316C129.887 144.333 129.683 145.044 129.277 145.451C128.911 145.817 128.219 146 127.203 146H125.19C124.214 146 123.522 145.817 123.116 145.451C122.709 145.044 122.506 144.333 122.506 143.316V140.266C122.506 139.29 122.709 138.619 123.116 138.253C123.522 137.846 124.214 137.643 125.19 137.643H127.203ZM162.6 103.91L162.295 109.888H144.727L144.178 119.343L149.668 119.892C152.311 120.095 154.528 120.522 156.317 121.173C158.147 121.824 159.611 122.698 160.709 123.796C161.848 124.894 162.661 126.236 163.149 127.822C163.637 129.367 163.881 131.177 163.881 133.251C163.881 135 163.678 136.687 163.271 138.314C162.864 139.941 162.132 141.384 161.075 142.645C160.058 143.906 158.615 144.902 156.744 145.634C154.914 146.366 152.535 146.732 149.607 146.732C147.777 146.732 145.683 146.61 143.324 146.366C141.006 146.163 138.627 145.817 136.187 145.329L136.919 139.412C138.871 139.656 140.803 139.88 142.714 140.083C144.625 140.246 146.293 140.327 147.716 140.327C150.075 140.327 151.864 140.063 153.084 139.534C154.304 138.965 155.138 138.151 155.585 137.094C156.032 135.996 156.276 134.654 156.317 133.068C156.398 131.482 156.215 130.221 155.768 129.286C155.361 128.351 154.69 127.639 153.755 127.151C152.86 126.663 151.64 126.317 150.095 126.114C148.55 125.911 146.679 125.748 144.483 125.626L140.274 125.199C139.501 125.077 138.871 124.752 138.383 124.223C137.936 123.694 137.732 123.044 137.773 122.271L138.81 103.91H162.6Z" fill="black"/>
</svg>
