<svg width="26" height="26" viewBox="0 0 26 26" fill="none" xmlns="http://www.w3.org/2000/svg">
<path d="M13.304 1.23198L15.9177 9.67826C15.9605 9.81644 16.0832 9.91017 16.2217 9.91017H24.6797C24.9893 9.91017 25.1181 10.3263 24.8677 10.5175L21.4909 13.0937L18.0249 15.7377C17.9702 15.7792 17.9295 15.838 17.9086 15.9054C17.8878 15.9728 17.8878 16.0455 17.9088 16.1129L18.8963 19.3036L20.5225 24.5591C20.6181 24.8684 20.281 25.1255 20.0305 24.9343L16.833 22.4952L13.188 19.7142C13.1333 19.6725 13.0675 19.6501 13 19.6501C12.9325 19.6501 12.8667 19.6725 12.812 19.7142L9.55513 22.1991L5.96947 24.9343C5.71902 25.1255 5.38185 24.8684 5.47749 24.5591L6.96465 19.7535L8.09118 16.1129C8.11217 16.0455 8.11224 15.9728 8.09138 15.9054C8.07053 15.838 8.02982 15.7792 7.97513 15.7377L4.43131 13.0343L1.13232 10.5175C0.881865 10.3263 1.01066 9.91017 1.32029 9.91017H9.77829C9.91678 9.91017 10.0395 9.81644 10.0823 9.67826L12.696 1.23198C12.7916 0.922674 13.2084 0.922674 13.304 1.23198Z" stroke="#121330" stroke-width="1.3" stroke-linecap="round" stroke-linejoin="round"/>
</svg>
