<svg width="26" height="22" viewBox="0 0 26 22" fill="none" xmlns="http://www.w3.org/2000/svg">
<path d="M23.1053 17.4706C23.5919 17.4708 24.0597 17.6454 24.4119 17.9581C24.764 18.2709 24.9735 18.6978 24.9969 19.1505C25.0203 19.6032 24.8558 20.0469 24.5375 20.3896C24.2192 20.7324 23.7715 20.948 23.2872 20.9918L23.1053 21H2.89474C2.40815 20.9998 1.9403 20.8252 1.58814 20.5125C1.23599 20.1997 1.02651 19.7728 1.00313 19.3201C0.979743 18.8674 1.14424 18.4237 1.46254 18.0809C1.78083 17.7382 2.22852 17.5226 2.71284 17.4788L2.89474 17.4706H23.1053ZM23.1053 9.23529C23.6078 9.23529 24.0897 9.42122 24.445 9.75216C24.8004 10.0831 25 10.532 25 11C25 11.468 24.8004 11.9169 24.445 12.2478C24.0897 12.5788 23.6078 12.7647 23.1053 12.7647H2.89474C2.39222 12.7647 1.91029 12.5788 1.55496 12.2478C1.19962 11.9169 1 11.468 1 11C1 10.532 1.19962 10.0831 1.55496 9.75216C1.91029 9.42122 2.39222 9.23529 2.89474 9.23529H23.1053ZM23.1053 1C23.6078 1 24.0897 1.18592 24.445 1.51687C24.8004 1.84782 25 2.29668 25 2.76471C25 3.23274 24.8004 3.6816 24.445 4.01254C24.0897 4.34349 23.6078 4.52941 23.1053 4.52941H2.89474C2.39222 4.52941 1.91029 4.34349 1.55496 4.01254C1.19962 3.6816 1 3.23274 1 2.76471C1 2.29668 1.19962 1.84782 1.55496 1.51687C1.91029 1.18592 2.39222 1 2.89474 1H23.1053Z" stroke="black" stroke-width="1.3"/>
</svg>
