<svg width="20" height="20" viewBox="0 0 20 20" fill="none" xmlns="http://www.w3.org/2000/svg">
<path d="M12.6559 6.45716C11.8231 5.92134 10.8232 5.68016 9.8265 5.77473C8.8298 5.8693 7.89798 6.29376 7.1898 6.97579C6.37796 7.75764 5.92188 8.81804 5.92188 9.92374C5.92188 11.0294 6.37796 12.0898 7.1898 12.8717C8.00164 13.6535 9.10274 14.0928 10.2509 14.0928C11.399 14.0928 12.5001 13.6535 13.3119 12.8717C13.9173 12.2886 14.3296 11.5457 14.4966 10.737C14.6636 9.92827 14.5779 9.09001 14.2503 8.3282C13.9226 7.5664 13.3678 6.91527 12.6559 6.45716Z" stroke="black" stroke-width="1.3" stroke-linecap="round" stroke-linejoin="round"/>
<path d="M17.9202 11.2652L18.3925 11.5279C18.5299 11.6041 18.6504 11.7056 18.7471 11.8267C18.8438 11.9478 18.9147 12.0861 18.9559 12.2336C19.0389 12.5315 18.9957 12.849 18.8357 13.1162L17.4009 15.5095C17.3215 15.6418 17.2159 15.7578 17.0901 15.8508C16.9642 15.9438 16.8205 16.0121 16.6673 16.0516C16.5141 16.0912 16.3542 16.1012 16.1969 16.0813C16.0396 16.0614 15.888 16.0118 15.7506 15.9354L15.2769 15.6717C14.5754 16.2423 13.7745 16.6885 12.9111 16.9895V17.5163C12.9112 17.7463 12.8404 17.9711 12.7076 18.1623C12.5749 18.3535 12.3863 18.5025 12.1656 18.5904C12.0191 18.6488 11.8621 18.6789 11.7035 18.6788H8.83393C8.67536 18.6789 8.51834 18.6489 8.37183 18.5905C8.22532 18.5321 8.0922 18.4464 7.98008 18.3384C7.86791 18.2305 7.77894 18.1023 7.71824 17.9613C7.65755 17.8202 7.62632 17.669 7.62634 17.5163V16.9913C6.76301 16.6903 5.962 16.2442 5.26056 15.6736L4.78686 15.9373C4.64946 16.0137 4.49779 16.0632 4.34049 16.0832C4.1832 16.1031 4.02337 16.093 3.87012 16.0535C3.71688 16.0139 3.57322 15.9457 3.44736 15.8527C3.3215 15.7597 3.21589 15.6437 3.13657 15.5114L1.70132 13.1181C1.6219 12.9858 1.57032 12.8397 1.54954 12.6882C1.52876 12.5367 1.53919 12.3828 1.58022 12.2351C1.62127 12.0875 1.69215 11.9492 1.7888 11.8279C1.88545 11.7067 2.00598 11.6051 2.14348 11.5288L2.61573 11.2661C2.45588 10.3953 2.45588 9.50422 2.61573 8.63341L2.14348 8.37071C2.00598 8.29442 1.88545 8.19276 1.7888 8.07156C1.69215 7.95035 1.62127 7.81198 1.58022 7.66436C1.53913 7.51674 1.52867 7.36277 1.54945 7.21126C1.57023 7.05975 1.62184 6.91367 1.70132 6.7814L3.13608 4.38812C3.2154 4.2558 3.32101 4.13982 3.44687 4.04681C3.57274 3.9538 3.71639 3.88557 3.86964 3.84602C4.02288 3.80647 4.18271 3.79638 4.34001 3.81633C4.4973 3.83627 4.64897 3.88586 4.78637 3.96225L5.26008 4.22589C5.96151 3.65533 6.76252 3.20918 7.62585 2.9082V2.38326C7.62583 2.23055 7.65706 2.07933 7.71776 1.93825C7.77845 1.79718 7.86743 1.669 7.97959 1.56106C8.09171 1.45308 8.22484 1.36745 8.37134 1.30905C8.51785 1.25065 8.67488 1.22063 8.83344 1.2207H11.7025C11.8611 1.22063 12.0181 1.25066 12.1646 1.30905C12.3112 1.36744 12.4443 1.45307 12.5564 1.56103C12.6686 1.66899 12.7576 1.79717 12.8182 1.93825C12.8789 2.07933 12.9102 2.23055 12.9102 2.38326V2.90632C13.7735 3.20731 14.5745 3.65346 15.2759 4.22402L15.7496 3.96037C15.887 3.88398 16.0387 3.83439 16.196 3.81445C16.3532 3.79451 16.5131 3.8046 16.6663 3.84415C16.8196 3.88369 16.9632 3.95192 17.0891 4.04493C17.215 4.13795 17.3206 4.25393 17.3999 4.38625L18.8347 6.78046C18.9543 6.9797 19.0099 7.20867 18.9943 7.43835C18.9787 7.66803 18.8927 7.88808 18.7471 8.07064C18.6505 8.19183 18.53 8.29348 18.3925 8.36977L17.9202 8.63248C18.0801 9.50328 18.0801 10.3943 17.9202 11.2652Z" stroke="#121330" stroke-width="1.3" stroke-linecap="round" stroke-linejoin="round"/>
</svg>
