<svg width="17" height="16" viewBox="0 0 17 16" fill="none" xmlns="http://www.w3.org/2000/svg">
<path d="M8.29939 1.41992H2.89553C2.48604 1.41992 2.09333 1.58259 1.80378 1.87214C1.51423 2.16169 1.35156 2.5544 1.35156 2.96388V13.7716C1.35156 14.1811 1.51423 14.5738 1.80378 14.8634C2.09333 15.1529 2.48604 15.3156 2.89553 15.3156H13.7033C14.1127 15.3156 14.5055 15.1529 14.795 14.8634C15.0846 14.5738 15.2472 14.1811 15.2472 13.7716V8.36775" stroke="black" stroke-width="0.907821" stroke-linecap="round" stroke-linejoin="round"/>
<path d="M13.2233 1.13004C13.5304 0.822925 13.947 0.650391 14.3813 0.650391C14.8156 0.650391 15.2322 0.822925 15.5393 1.13004C15.8464 1.43715 16.0189 1.85369 16.0189 2.28801C16.0189 2.72233 15.8464 3.13887 15.5393 3.44598L8.58141 10.4046C8.3981 10.5878 8.17164 10.7218 7.92291 10.7945L5.70501 11.4429C5.63858 11.4623 5.56816 11.4635 5.50113 11.4463C5.4341 11.4291 5.37292 11.3943 5.32399 11.3453C5.27506 11.2964 5.24019 11.2352 5.22301 11.1682C5.20584 11.1012 5.207 11.0307 5.22638 10.9643L5.87484 8.74641C5.94781 8.49787 6.08215 8.27168 6.26546 8.08868L13.2233 1.13004Z" stroke="black" stroke-width="0.907821" stroke-linecap="round" stroke-linejoin="round"/>
</svg>
