<svg width="32" height="42" viewBox="0 0 32 42" fill="none" xmlns="http://www.w3.org/2000/svg">
<path d="M1.77049 21.049C1.2825 19.5234 1 17.9064 1 16.2243C1 7.47455 8.25572 0.459102 17.0011 1.03286C24.411 1.51533 30.4339 7.59191 30.9604 15.1029C31.1017 17.0588 30.8577 18.9496 30.344 20.71C27.9297 28.9121 15.9995 41 15.9995 41C15.9995 41 4.77553 30.4899 1.77049 21.049Z" fill="#E68A8B" stroke="black" stroke-width="1.3" stroke-miterlimit="14" stroke-linecap="round" stroke-linejoin="round"/>
<path d="M22.9622 16.2569C22.9622 20.221 19.803 23.4288 15.899 23.4288C11.9951 23.4288 8.83594 20.221 8.83594 16.2569C8.83594 12.2928 11.9951 9.08496 15.899 9.08496C19.803 9.08496 22.9622 12.2928 22.9622 16.2569Z" fill="#F2F2F2" stroke="black" stroke-width="1.3" stroke-miterlimit="14" stroke-linecap="round" stroke-linejoin="round"/>
</svg>
